<svg width="73.000000" height="72.000000" viewBox="0 0 73 72" fill="none" xmlns="http://www.w3.org/2000/svg" xmlns:xlink="http://www.w3.org/1999/xlink">
	<desc>
			Created with Pixso.
	</desc>
	<defs/>
	<rect id="Архив иконка" rx="0.000000" width="72.000000" height="71.000000" transform="translate(0.500000 0.500000)" fill="#FFFFFF" fill-opacity="0"/>
	<path id="Vector 3" d="M10 3C10 5 11 6 12 6L37 6L37 0L12 0C11 0 10 1.14 10 3ZM7 36L13 36L13 18L37 18L37 12L12 12C10.5 12 7 12.5 7 16.5L7 36ZM37 48C34.5 47.83 29.2 46.4 28 42L1 42L1 65C1.16 67 2.79 71.19 8 72L37 72L37 48Z" fill="#FFFFFF" fill-opacity="1.000000" fill-rule="evenodd"/>
	<path id="Vector 4" d="M64 3C64 5 63 6 62 6L37 6L37 0L62 0C63 0 64 1.14 64 3ZM67 36L61 36L61 18L37 18L37 12L62 12C63.5 12 67 12.5 67 16.5L67 36ZM37 48C39.5 47.83 44.8 46.4 46 42L73 42L73 65C72.83 67 71.19 71.19 66 72L37 72L37 48Z" fill="#FFFFFF" fill-opacity="1.000000" fill-rule="evenodd"/>
</svg>
